<?xml version="1.0" encoding="UTF-8"?>
<svg width="20px" height="20px" viewBox="0 0 20 20" version="1.1" xmlns="http://www.w3.org/2000/svg"
     xmlns:xlink="http://www.w3.org/1999/xlink">
    <g>
        <g>
            <path d="M12.0968533,10 L19.5875841,2.5092692 C20.145476,1.95137736 20.145476,1.04685596 19.5875841,0.488964113 L19.585811,0.487191008 L19.585811,0.487191008 C19.0279192,-0.0707008378 18.1233978,-0.0707008378 17.565506,0.487191008 L17.565506,0.487191008 L10,8.05269696 L2.43449405,0.487191008 C1.8766022,-0.0707008378 0.972080805,-0.0707008378 0.41418896,0.487191008 L0.41418896,0.487191008 L0.412415855,0.488964113 C-0.14547599,1.04685596 -0.14547599,1.95137736 0.412415855,2.5092692 L7.90314665,10 L0.412415855,17.4907308 C-0.14547599,18.0486226 -0.14547599,18.953144 0.412415855,19.5110359 L0.41418896,19.512809 L0.41418896,19.512809 C0.972080805,20.0707008 1.8766022,20.0707008 2.43449405,19.512809 L10,11.947303 L17.565506,19.512809 L17.565506,19.512809 C18.1233978,20.0707008 19.0279192,20.0707008 19.585811,19.512809 L19.5875841,19.5110359 C20.145476,18.953144 20.145476,18.0486226 19.5875841,17.4907308 L12.0968533,10 Z"
                  id="Combined-Shape"></path>
        </g>
    </g>
</svg>